<svg xmlns="http://www.w3.org/2000/svg" width="24" height="24" viewBox="0 0 24 24" fill="currentColor">
  <path d="M15.07 13.76c-.297-.15-1.758-.868-2.03-.967-.273-.099-.472-.149-.67.149-.198.297-.768.967-.941 1.165-.173.198-.347.223-.644.074-.297-.149-1.255-.462-2.39-1.475-.883-.788-1.48-1.761-1.653-2.059-.173-.297-.018-.458.13-.606.134-.133.297-.347.446-.521.148-.173.198-.297.297-.495.099-.198.05-.372-.025-.521-.074-.149-.67-1.612-.918-2.206-.242-.579-.487-.5-.67-.51-.173-.008-.372-.01-.57-.01-.198 0-.521.074-.794.372-.272.297-1.04 1.016-1.04 2.479 0 1.462 1.065 2.875 1.213 3.074.149.198 2.096 3.2 5.077 4.487.709.306 1.262.489 1.694.625.712.227 1.36.195 1.871.118.571-.085 1.758-.719 2.006-1.413.248-.694.248-1.289.173-1.413-.074-.124-.272-.198-.57-.347z"/>
  <path d="M20.52 3.449C18.24 1.245 15.24 0 12.045 0 5.463 0 .104 5.334.101 11.893c0 2.096.547 4.142 1.588 5.945L0 24l6.335-1.652c1.746.95 3.712 1.45 5.709 1.451h.005c6.58 0 11.94-5.334 11.943-11.893 0-3.176-1.238-6.165-3.472-8.457zM12.045 21.785h-.004c-1.774 0-3.513-.477-5.031-1.378l-.361-.214-3.741.98 1-3.648-.235-.374c-.99-1.574-1.512-3.393-1.512-5.26.003-5.45 4.436-9.884 9.888-9.884 2.64 0 5.122 1.03 6.988 2.898 1.866 1.869 2.893 4.352 2.892 6.993-.003 5.451-4.437 9.887-9.884 9.887z"/>
</svg>
