<svg xmlns="http://www.w3.org/2000/svg" width="24" height="24" viewBox="0 0 24 24" fill="currentColor">
  <path d="M12 0c-6.627 0-12 5.373-12 12s5.373 12 12 12 12-5.373 12-12-5.373-12-12-12zm6.344 14.716c.232 1.385-.019 2.403-.772 3.065-.873.768-2.451 1.096-4.172.687-1.722-.409-3.682-1.494-5.203-2.762-1.446-1.205-2.197-2.546-2.197-3.706 0-1.295.935-2.291 2.291-2.291.414 0 .829.116 1.193.336.364.22.644.534.813.898.218.468.582 1.295.836 1.738.254.444.299.716.142 1.026-.157.31-.315.437-.547.716-.232.279-.485.621-.693.824-.231.226-.472.47-.188.913.285.443 1.267 2.088 2.719 3.383 1.87 1.67 3.445 2.19 3.932 2.434.488.244.773.203 1.058-.122.285-.325.611-.849.937-1.372.326-.523.651-.598 1.098-.402.447.196 2.831 1.335 3.319 1.577.488.243.813.365.932.568z"/>
</svg>
